<?xml version="1.0" encoding="utf-8"?>
<!-- Generator: Adobe Illustrator 23.0.3, SVG Export Plug-In . SVG Version: 6.00 Build 0)  -->
<svg version="1.1" id="图层_1" xmlns:sketch="http://www.bohemiancoding.com/sketch/ns"
	 xmlns="http://www.w3.org/2000/svg" xmlns:xlink="http://www.w3.org/1999/xlink" x="0px" y="0px" viewBox="0 0 648 250"
	 style="enable-background:new 0 0 648 250;" xml:space="preserve">
<style type="text/css">
	.st0{fill-rule:evenodd;clip-rule:evenodd;fill:url(#Shape-3_1_);}
	.st1{fill-rule:evenodd;clip-rule:evenodd;fill:#00587C;}
	.st2{fill-rule:evenodd;clip-rule:evenodd;fill:url(#Shape-5_1_);}
	.st3{fill-rule:evenodd;clip-rule:evenodd;fill:url(#Rectangle-path-2_1_);}
	.st4{fill-rule:evenodd;clip-rule:evenodd;fill:url(#Shape-6_1_);}
	.st5{fill-rule:evenodd;clip-rule:evenodd;fill:url(#Shape-7_1_);}
	.st6{fill-rule:evenodd;clip-rule:evenodd;fill:url(#Shape-8_1_);}
	.st7{fill-rule:evenodd;clip-rule:evenodd;fill:url(#Shape-9_1_);}
	.st8{fill-rule:evenodd;clip-rule:evenodd;fill:url(#Shape-10_1_);}
	.st9{fill-rule:evenodd;clip-rule:evenodd;fill:url(#Shape-11_1_);}
	.st10{fill-rule:evenodd;clip-rule:evenodd;fill:url(#Shape-12_1_);}
	.st11{fill-rule:evenodd;clip-rule:evenodd;fill:#00A9E0;}
</style>
<title>Logo DarkBlue + BitShares Blue - 2 color</title>
<desc>Created with Sketch.</desc>
<g sketch:type="MSPage">
	<g sketch:type="MSArtboardGroup">
		<g transform="translate(46.000000, 44.000000)" sketch:type="MSLayerGroup">
			<g id="Imported-Layers">
			</g>
		</g>
		
			<linearGradient id="Shape-3_1_" gradientUnits="userSpaceOnUse" x1="-118.625" y1="741.125" x2="-118.625" y2="741.125" gradientTransform="matrix(8 0 0 -8 949 5929)">
			<stop  offset="0" style="stop-color:#004877"/>
			<stop  offset="1" style="stop-color:#009FE3"/>
		</linearGradient>
		<path id="Shape-3" sketch:type="MSShapeGroup" class="st0" d="M0,0"/>
		<path id="Shape-4" sketch:type="MSShapeGroup" class="st1" d="M256,111.5V101l9,7.3V119L256,111.5z"/>
		
			<linearGradient id="Shape-5_1_" gradientUnits="userSpaceOnUse" x1="-38.2541" y1="785.0074" x2="-161.3294" y2="804.8932" gradientTransform="matrix(54 0 0 -94 2850 74090)">
			<stop  offset="0" style="stop-color:#189FCE"/>
			<stop  offset="1" style="stop-color:#009FE3"/>
		</linearGradient>
		<path id="Shape-5" sketch:type="MSShapeGroup" class="st2" d="M246.5,132.5c-2.4-2.6-5.3-4.7-8.5-6.2c-3.3-1.5-6.9-2.3-10.9-2.3
			c-5.8,0-11,1.5-15.3,4.7c-2.6,1.8-4.9,4.2-6.6,6.9V89H200v93.4h5.1v-11c1.8,2.7,4,5,6.6,6.9c4.4,3.2,9.5,4.7,15.3,4.7
			c3.9,0,7.6-0.8,10.9-2.3c3.3-1.5,6.2-3.5,8.5-6.1c2.4-2.6,4.3-5.8,5.5-9.3c1.2-3.5,2-7.5,2-11.8c0-4.2-0.7-8.2-2-11.8
			C250.8,138.3,248.9,135.2,246.5,132.5L246.5,132.5z M249,153.7c0,3.6-0.5,6.9-1.6,10c-1,3-2.6,5.5-4.4,7.5c-2,2.2-4.3,3.7-6.9,4.9
			c-2.7,1.1-5.7,1.8-9,1.8s-6.2-0.5-9-1.8c-2.7-1.1-5-2.8-6.9-4.9c-2-2.2-3.4-4.6-4.5-7.5c-1-3-1.6-6.3-1.6-10c0-3.6,0.5-6.9,1.6-10
			c1-3,2.6-5.5,4.5-7.7c2-2.2,4.3-3.8,6.9-5c2.7-1.2,5.7-1.8,8.9-1.8c3.2,0,6.2,0.5,8.9,1.8c2.7,1.2,5,2.8,6.9,5
			c2,2.2,3.4,4.7,4.5,7.7C248.5,146.8,249,150,249,153.7L249,153.7z"/>
		
			<linearGradient id="Rectangle-path-2_1_" gradientUnits="userSpaceOnUse" x1="-29.169" y1="781.6613" x2="-152.2444" y2="801.5471" gradientTransform="matrix(5 0 0 -59 461 46371)">
			<stop  offset="0" style="stop-color:#189FCE"/>
			<stop  offset="1" style="stop-color:#009FE3"/>
		</linearGradient>
		<rect id="Rectangle-path-2" x="261" y="125" sketch:type="MSShapeGroup" class="st3" width="5" height="59">
		</rect>
		
			<linearGradient id="Shape-6_1_" gradientUnits="userSpaceOnUse" x1="-37.5019" y1="783.8976" x2="-160.5773" y2="803.7833" gradientTransform="matrix(30 0 0 -78 1722 61419)">
			<stop  offset="0" style="stop-color:#189FCE"/>
			<stop  offset="1" style="stop-color:#009FE3"/>
		</linearGradient>
		<path id="Shape-6" sketch:type="MSShapeGroup" class="st4" d="M297.7,177c-1.5,1.4-3.2,2-5.3,2s-3.8-0.7-5.1-2.2
			c-1.2-1.5-2.1-3.4-2.1-5.8v-40.4h15.2v-5.2h-15.2V106h-5.2v19.4H272v5.1h8.1v40.4c0,3.7,1.2,6.9,3.4,9.3c2.3,2.5,5.3,3.7,8.8,3.7
			c1.7,0,3.3-0.2,4.7-0.9c1.4-0.5,2.7-1.2,3.8-2.3l1.2-0.9l-3-4.4L297.7,177L297.7,177z"/>
		
			<linearGradient id="Shape-7_1_" gradientUnits="userSpaceOnUse" x1="-37.9482" y1="781.6696" x2="-161.0235" y2="801.5553" gradientTransform="matrix(41 0 0 -59 2305 46371)">
			<stop  offset="0" style="stop-color:#004877"/>
			<stop  offset="1" style="stop-color:#009FE3"/>
		</linearGradient>
		<path id="Shape-7" sketch:type="MSShapeGroup" class="st5" d="M341,156.7c-1.6-1.2-3.4-2.2-5.4-2.8c-1.8-0.7-3.9-1.2-5.7-1.8
			l-3.5-1c-1.4-0.3-2.9-0.8-4.4-1.2c-1.2-0.5-2.7-1.1-3.7-1.8c-1-0.8-2-1.8-2.7-3c-0.7-1.2-1-3-1-5c0-1.7,0.3-3.2,1.2-4.4
			s1.8-2.3,2.9-3c1.2-0.8,2.7-1.5,4.4-1.8c1.6-0.5,3.3-0.7,4.9-0.7c2.9,0,5.5,0.3,7.5,1.1c2.2,0.8,4.4,1.8,6.4,3.4l1.2,0.9l3-4
			l-1.2-0.9c-2.5-2-5.2-3.4-8-4.4c-2.7-0.9-5.8-1.2-9.1-1.2c-2.2,0-4.4,0.2-6.5,0.8c-2.2,0.5-4.2,1.5-5.9,2.8
			c-1.8,1.2-3.3,2.8-4.4,4.7c-1.1,1.9-1.7,4.3-1.7,6.9c0,3,0.5,5.5,1.7,7.5c1.2,1.8,2.4,3.4,4,4.6c1.6,1.1,3.3,2,5.2,2.6
			c1.7,0.5,3.4,1,4.8,1.3l3.5,1c1.8,0.5,3.5,1,5.2,1.5c1.5,0.5,2.9,1.2,4,2c1,0.8,2,1.8,2.5,3c0.7,1.2,0.9,3,0.9,5
			c0,1.8-0.3,3.4-1.2,4.5c-0.8,1.2-1.8,2.3-3.2,3c-1.2,0.8-2.9,1.3-4.6,1.8c-1.8,0.3-3.5,0.5-5.4,0.5c-3.3,0-6.4-0.7-9.2-1.8
			s-5.5-3-7.8-5.2l-1.2-1.1l-3.4,4l1,1c2.9,2.7,5.9,4.7,9.5,6.2c3.5,1.3,7.3,2.2,11.2,2.2c2.2,0,4.4-0.2,6.6-0.8
			c2.3-0.5,4.4-1.3,6.3-2.5c1.8-1.2,3.4-2.7,4.7-4.6c1.3-2,1.8-4.4,1.8-7.2c0-3-0.5-5.5-1.5-7.3C343.8,159.6,342.5,157.9,341,156.7
			L341,156.7z"/>
		
			<linearGradient id="Shape-8_1_" gradientUnits="userSpaceOnUse" x1="-38.0174" y1="785.0062" x2="-161.0928" y2="804.8919" gradientTransform="matrix(43 0 0 -94 2454 74091)">
			<stop  offset="0" style="stop-color:#004877"/>
			<stop  offset="1" style="stop-color:#009FE3"/>
		</linearGradient>
		<path id="Shape-8" sketch:type="MSShapeGroup" class="st6" d="M391,131.3c-2-2-4.2-3.4-6.9-4.5c-2.6-1.2-5.5-1.7-8.5-1.7
			c-4.2,0-8.1,1.2-11.5,3.3c-1.8,1.2-3.5,2.6-4.9,4.3V90H354v94h5.2v-37c0-2.3,0.5-4.5,1.2-6.5c0.8-2,2-3.9,3.4-5.4
			c1.5-1.5,3.2-2.7,5.2-3.5c2-0.8,4.2-1.2,6.5-1.2s4.4,0.5,6.4,1.2c2,0.8,3.7,2,5.2,3.5c1.5,1.5,2.6,3.3,3.4,5.4
			c0.8,2,1.2,4.2,1.2,6.5v37h5.4v-37c0-3.1-0.5-5.9-1.7-8.6C394.4,135.5,392.9,133.3,391,131.3L391,131.3z"/>
		
			<linearGradient id="Shape-9_1_" gradientUnits="userSpaceOnUse" x1="-38.0827" y1="781.6573" x2="-161.158" y2="801.5431" gradientTransform="matrix(46 0 0 -59 2654 46370)">
			<stop  offset="0" style="stop-color:#004877"/>
			<stop  offset="1" style="stop-color:#009FE3"/>
		</linearGradient>
		<path id="Shape-9" sketch:type="MSShapeGroup" class="st7" d="M445.7,131.8c-1.7-2.4-3.8-4.4-6.8-5.8c-2.8-1.2-6.4-2-10.7-2
			c-1.9,0-4.5,0.2-7.4,0.7c-3,0.5-6.4,1.5-10,3l-1.5,0.7l2.1,4.8l1.3-0.7c3.2-1.3,6.1-2.3,8.8-2.7c2.8-0.3,5.1-0.5,6.8-0.5
			c3.4,0,6.1,0.5,8.1,1.3c2,0.9,3.6,2.3,4.8,3.8c1.2,1.7,2,3.8,2.5,6.2c0.3,2,0.7,4.3,0.8,6.7c-6.2-1.2-11.6-2-16.4-2
			c-7.5,0-13.5,1.7-17.6,4.8c-2.8,2.3-4.6,4.8-5.4,7.5s-1.2,5.1-1.2,7.2c0,1.5,0.2,3.4,0.8,5.5c0.5,2,1.5,4,3,5.9
			c1.3,1.8,3.4,3.4,5.8,4.7c2.3,1.2,5.4,2,9.1,2c1.8,0,3.8-0.2,6-0.7c2.1-0.5,4.3-1.1,6.4-2c2.1-0.9,4.3-2.2,6.2-3.6
			c1.2-1,2.6-2.3,3.7-3.5v9.3h5.1v-31.7c0-3.8-0.2-7.3-0.8-10.5C448.4,137.1,447.3,134.2,445.7,131.8L445.7,131.8z M444.6,152.6v5
			c0,1.8-0.2,3.7-0.5,5.5c-0.2,1.8-1,3.4-2.1,5c-1.2,1.8-2.7,3.3-4.3,4.5c-1.7,1.2-3.4,2.3-5.1,3c-1.8,0.8-3.5,1.2-5.3,1.7
			c-1.8,0.3-3.4,0.5-5,0.5c-2.7,0-4.8-0.5-6.6-1.3c-1.8-0.9-3.2-2.2-4-3.4c-1-1.2-1.7-2.7-2.1-4.2c-0.3-1.5-0.7-2.8-0.7-3.8
			c0-1.7,0.2-3.5,0.9-5.7c0.5-2,1.8-3.6,3.7-5.2c3.3-2.5,8-3.7,14.3-3.7C432.6,150.6,438.3,151.3,444.6,152.6L444.6,152.6z"/>
		
			<linearGradient id="Shape-10_1_" gradientUnits="userSpaceOnUse" x1="-37.5057" y1="781.6404" x2="-160.5811" y2="801.5261" gradientTransform="matrix(30 0 0 -59 1908 46371)">
			<stop  offset="0" style="stop-color:#004877"/>
			<stop  offset="1" style="stop-color:#009FE3"/>
		</linearGradient>
		<path id="Shape-10" sketch:type="MSShapeGroup" class="st8" d="M487.3,128.1c-1.3-0.9-3-1.7-4.7-2.3c-1.8-0.5-3.5-0.8-5.5-0.8
			c-3.6,0-6.9,1-10,3c-1.3,0.9-2.7,2-3.8,3.4v-5.7H458V184h5.3v-38.1c0-2.3,0.3-4.4,1-6.2c0.8-1.8,1.7-3.5,3-4.9
			c1.2-1.4,2.7-2.5,4.4-3.3c2.8-1.2,6.3-1.5,9.2-0.5c1.2,0.5,2.5,1.2,3.6,1.8l1.7,1.2l1.8-5.2L487.3,128.1L487.3,128.1z"/>
		
			<linearGradient id="Shape-11_1_" gradientUnits="userSpaceOnUse" x1="-38.207" y1="781.8172" x2="-161.2823" y2="801.7029" gradientTransform="matrix(52 0 0 -60 3038 47163)">
			<stop  offset="0" style="stop-color:#004877"/>
			<stop  offset="1" style="stop-color:#009FE3"/>
		</linearGradient>
		<path id="Shape-11" sketch:type="MSShapeGroup" class="st9" d="M493.1,152H540l-0.1-1.7c-0.2-3.9-1.2-7.6-2.3-10.8
			c-1.2-3.2-3-5.9-5.2-8.2c-2.2-2.3-4.8-4.1-7.6-5.4s-6.3-1.8-9.8-1.8c-3.9,0-7.6,0.8-10.9,2.3s-6.2,3.5-8.6,6.3
			c-2.3,2.7-4.2,5.9-5.5,9.6c-1.2,3.7-2,7.6-2,12s0.7,8.4,2,11.9c1.2,3.7,3.2,6.9,5.5,9.5c2.3,2.7,5.2,4.8,8.6,6.2
			c3.3,1.4,6.9,2.2,10.9,2.2c4.4,0,8.4-0.7,12.1-2c3.7-1.2,6.9-3.3,9.6-5.9l1.2-1l-3.3-3.9l-1.2,1c-2.3,2-4.9,3.5-8.1,4.8
			c-3.1,1.2-6.5,1.7-10.3,1.7c-3.2,0-6.2-0.5-8.8-1.8s-4.9-2.9-6.9-4.9c-1.8-2.2-3.4-4.7-4.4-7.6c-1-3-1.6-6.4-1.6-10.1v-1.8
			C493.1,152.2,493.1,152.1,493.1,152L493.1,152z M493.8,146.8c0.5-2.3,1.2-4.4,2.3-6.2c1.2-2.3,2.7-4.4,4.6-6.1
			c1.8-1.7,4-3,6.4-3.9c2.3-0.9,5-1.4,7.9-1.4c3.2,0,5.9,0.5,8.2,1.6c2.3,1,4.2,2.4,5.8,4.2c1.6,1.8,2.9,3.9,3.7,6.1
			c0.8,1.8,1.2,3.8,1.7,5.7L493.8,146.8L493.8,146.8L493.8,146.8z"/>
		
			<linearGradient id="Shape-12_1_" gradientUnits="userSpaceOnUse" x1="-37.9482" y1="781.6694" x2="-161.0235" y2="801.5552" gradientTransform="matrix(40.9999 0 0 -59 2543.9971 46371)">
			<stop  offset="0" style="stop-color:#004877"/>
			<stop  offset="1" style="stop-color:#009FE3"/>
		</linearGradient>
		<path id="Shape-12" sketch:type="MSShapeGroup" class="st10" d="M583.7,161.4c-1-2-2.3-3.5-3.9-4.7c-1.6-1.2-3.4-2.2-5.4-2.8
			c-1.8-0.7-3.9-1.2-5.7-1.8l-3.5-1c-1.4-0.3-2.9-0.8-4.3-1.2c-1.2-0.5-2.6-1.1-3.7-1.8c-1-0.8-2-1.8-2.6-3c-0.7-1.2-1-3-1-5
			c0-1.7,0.3-3.2,1.2-4.4c0.8-1.2,1.8-2.3,3-3c1.2-0.8,2.7-1.5,4.3-1.8c1.6-0.5,3.3-0.7,4.9-0.7c2.9,0,5.5,0.3,7.5,1.1
			c2.2,0.8,4.3,1.8,6.4,3.4l1.2,0.9l3-4l-1.2-0.9c-2.5-2-5.2-3.4-7.9-4.4c-2.7-0.9-5.8-1.2-9.1-1.2c-2.2,0-4.4,0.2-6.5,0.8
			c-2,0.5-4.2,1.5-5.9,2.8c-1.8,1.2-3.3,2.8-4.4,4.7c-1.2,2-1.7,4.3-1.7,6.9c0,3,0.5,5.5,1.7,7.5c1.2,1.8,2.4,3.4,4,4.6
			c1.6,1.1,3.3,2,5.2,2.6c1.7,0.5,3.4,1,4.8,1.3l3.5,1c1.8,0.5,3.5,1,5.2,1.5c1.5,0.5,2.9,1.2,4,2c1,0.8,2,1.8,2.5,3
			c0.7,1.2,0.9,3,0.9,5c0,1.8-0.3,3.4-1.2,4.5c-0.8,1.2-1.8,2.3-3.2,3c-1.2,0.8-2.9,1.3-4.6,1.8c-4.9,1.1-10.1,0.7-14.6-1.2
			c-2.9-1.2-5.5-3-7.7-5.2l-1.2-1.1l-3.4,4l1,1c2.9,2.7,5.9,4.7,9.4,6.2c3.5,1.3,7.3,2.2,11.1,2.2c2.2,0,4.4-0.2,6.6-0.8
			c2.3-0.5,4.4-1.3,6.2-2.5c1.8-1.2,3.4-2.7,4.7-4.6c1.2-2,1.8-4.4,1.8-7.2C585.2,165.8,584.7,163.3,583.7,161.4L583.7,161.4z"/>
		<path id="Shape-13" sketch:type="MSShapeGroup" class="st11" d="M84,145.4L45,107v46h35.7C81.3,150.2,82.4,147.6,84,145.4
			L84,145.4z"/>
		<path id="Shape-14" sketch:type="MSShapeGroup" class="st11" d="M80.9,161H45c0.8,12.6,5.9,24,13.7,33L84,168.8
			C82.6,166.4,81.4,163.8,80.9,161L80.9,161z"/>
		<path id="Shape-15" sketch:type="MSShapeGroup" class="st11" d="M137,115.7c-8.9-7.8-20.3-12.8-33-13.7v35.8
			c2.9,0.5,5.4,1.6,7.6,3.2L137,115.7L137,115.7z"/>
		<path id="Shape-16" sketch:type="MSShapeGroup" class="st11" d="M117,168l25,25c7.4-8.8,12.1-19.8,13-32h-35.1
			C119.2,163.6,118.3,165.9,117,168L117,168z"/>
		<path id="Shape-17" sketch:type="MSShapeGroup" class="st11" d="M120.2,153H156c-0.8-12.6-5.9-24-13.7-33L117,145.2
			C118.5,147.6,119.6,150.3,120.2,153L120.2,153z"/>
		<path id="Shape-18" sketch:type="MSShapeGroup" class="st11" d="M64,199.3c8.9,7.8,20.3,12.8,33,13.7v-35.8
			c-2.9-0.5-5.4-1.6-7.6-3.2L64,199.3L64,199.3z"/>
		<path id="Shape-19" sketch:type="MSShapeGroup" class="st11" d="M105,177.2V213c12.7-0.8,24.1-5.9,33-13.7L112.8,174
			C110.4,175.6,107.8,176.7,105,177.2L105,177.2z"/>
		<path id="Shape-20" sketch:type="MSShapeGroup" class="st11" d="M45.1,95.3c9.6,9.5,39.7,39.7,44.8,44.7c2.2-1.2,4.4-2.3,7.1-2.8
			V78.9L45,33C45,33.1,45.1,93.8,45.1,95.3L45.1,95.3z"/>
	</g>
</g>
</svg>
